<?xml version="1.0" encoding="UTF-8" standalone="no"?><!DOCTYPE svg PUBLIC "-//W3C//DTD SVG 1.1//EN" "http://www.w3.org/Graphics/SVG/1.1/DTD/svg11.dtd"><svg width="100%" height="100%" viewBox="0 0 2992 1638" version="1.1" xmlns="http://www.w3.org/2000/svg" xmlns:xlink="http://www.w3.org/1999/xlink" xml:space="preserve" xmlns:serif="http://www.serif.com/" style="fill-rule:evenodd;clip-rule:evenodd;stroke-linejoin:round;stroke-miterlimit:2;"><rect id="Artboard1" x="0" y="0" width="2991.39" height="1635.92" style="fill:none;"/><g><clipPath id="_clip1"><rect x="0" y="0" width="2991.39" height="1635.92"/></clipPath><g clip-path="url(#_clip1)"><path d="M745.308,1113.96c-1.283,-7.392 -2.866,-19.438 -3.958,-27.571l-0.542,-0c-1.279,8.133 -3.058,20.737 -4.32,27.75l-4.517,25.25l17.292,-0l-3.955,-25.429Z" style="fill:#fff;fill-opacity:0.1;fill-rule:nonzero;"/><path d="M839.242,1150.02c-0,-12.058 -8.309,-18.392 -17.675,-18.592l-5.05,0l-0,36.434c1.433,0.362 3.041,0.362 5.237,0.362c9.534,0 17.488,-5.787 17.488,-18.204" style="fill:#fff;fill-opacity:0.1;fill-rule:nonzero;"/><path d="M1010.65,1099.89c0,-10.238 -4.162,-17.667 -14.787,-18.009c-1.984,0 -4.33,0.167 -5.609,0.709l0,36.233l4.163,0c10.275,0 16.233,-8.275 16.233,-18.933" style="fill:#fff;fill-opacity:0.1;fill-rule:nonzero;"/><path d="M1324.09,1099.89c-0,-10.238 -4.142,-17.667 -14.767,-18.009c-1.987,0 -4.329,0.167 -5.6,0.709l0,36.233l4.142,0c10.287,0 16.225,-8.275 16.225,-18.933" style="fill:#fff;fill-opacity:0.1;fill-rule:nonzero;"/><path d="M913.313,1166.41c9.904,0 13.695,-18.025 13.695,-42.712c0,-21.25 -3.237,-40.567 -13.883,-40.567c-9.367,0 -14.617,15.504 -14.617,41.671c0,27.558 5.25,41.608 14.804,41.608" style="fill:#fff;fill-opacity:0.1;fill-rule:nonzero;"/><path d="M836.513,1096.84c-0,-8.83 -4.146,-15.663 -13.867,-15.663c-2.534,0 -4.696,0.175 -6.129,0.704l-0,32.079l5.05,0c8.483,0 14.945,-7.191 14.945,-17.12" style="fill:#fff;fill-opacity:0.1;fill-rule:nonzero;"/><path d="M1086.34,1113.96c-1.246,-7.392 -2.88,-19.438 -3.992,-27.571l-0.508,-0c-1.255,8.133 -3.084,20.737 -4.33,27.75l-4.508,25.25l17.3,-0l-3.962,-25.429Z" style="fill:#fff;fill-opacity:0.1;fill-rule:nonzero;"/><path d="M640.421,1064.03l23.6,0l-0,101.475l31.187,0l0,20.021l-54.787,0l-0,-121.496Zm87.225,0l28.312,0l23.592,121.496l-22.871,0l-5.242,-27.758l-21.8,-0l-5.4,27.758l-22.9,0l26.309,-121.496Zm92.116,-0.529c11.35,0 22.35,1.446 30.817,8.65c6.475,5.412 9.2,13.508 9.2,22.004c0,10.792 -5.587,21.25 -17.667,26.475l0,0.729c14.071,3.955 21.634,15.68 21.634,29.017c-0,10.083 -3.254,17.85 -9.025,23.792c-7.2,7.933 -19.463,12.254 -39.842,12.254c-9.025,-0 -16.571,-0.529 -21.983,-1.258l-0,-119.325c7.241,-1.621 16.591,-2.338 26.866,-2.338m94.292,-0.904c29.354,-0 37.642,32.254 37.642,60.008c-0,45.788 -16.221,64.367 -39.3,64.367c-27.592,-0 -38.375,-29.204 -38.375,-62.542c-0,-33.171 13.162,-61.833 40.033,-61.833m78.383,0.904c12.984,0 24.496,1.788 32.413,9.025c7.425,6.658 9.567,14.754 9.567,25.217c-0,12.979 -6.284,24.683 -18.734,30.454l0,0.379c8.309,3.217 12.45,10.975 14.784,23.946c2.362,13.508 5.6,28.5 7.729,33.004l-24.675,0c-1.471,-3.425 -4.146,-15.679 -5.929,-29.05c-2.171,-15.117 -5.955,-19.437 -13.888,-19.437l-3.446,-0l0,48.487l-23.575,0l0,-119.687c7.363,-1.446 16.75,-2.338 25.754,-2.338m104.538,0.529l23.604,121.496l-22.875,0l-5.233,-27.758l-21.8,-0l-5.421,27.758l-22.879,0l26.312,-121.496l28.292,0Zm19.675,0l66.671,0l-0,21.817l-21.625,-0l-0,99.679l-23.604,0l-0,-99.679l-21.442,-0l-0,-21.817Zm110.837,-1.433c29.392,-0 37.671,32.254 37.671,60.008c0,45.788 -16.233,64.367 -39.3,64.367c-27.575,-0 -38.375,-29.204 -38.375,-62.542c0,-33.171 13.171,-61.833 40.004,-61.833m78.421,0.904c12.984,0 24.5,1.788 32.413,9.025c7.396,6.658 9.562,14.754 9.562,25.217c0,12.979 -6.316,24.683 -18.741,30.454l-0,0.379c8.283,3.217 12.425,10.975 14.787,23.946c2.333,13.508 5.588,28.5 7.738,33.004l-24.692,0c-1.45,-3.425 -4.142,-15.679 -5.954,-29.05c-2.129,-15.117 -5.921,-19.437 -13.854,-19.437l-3.442,-0l0,48.487l-23.583,0l-0,-119.687c7.366,-1.446 16.754,-2.338 25.766,-2.338m82.542,122.025l-23.629,0l-0,-121.496l23.629,0l0,121.496Zm55.158,-122.929c29.359,-0 37.692,32.254 37.692,60.008c0,45.788 -16.237,64.367 -39.312,64.367c-27.584,-0 -38.409,-29.204 -38.409,-62.542c0,-33.171 13.171,-61.833 40.029,-61.833m124.375,0.375c8.263,-0 14.046,1.608 16.4,3.229l-3.991,19.825c-2.684,-1.254 -5.721,-2.333 -10.967,-2.333c-13.346,-0 -25.438,11.533 -25.438,41.62c0,29.038 11.013,40.367 25.438,40.367c3.967,0 8.462,-0.891 11.342,-1.783l2.366,19.804c-3.437,1.65 -10.104,2.908 -18.404,2.908c-30.996,0 -45.787,-25.604 -45.787,-60.037c-0,-45.758 25.408,-63.6 49.041,-63.6m51.704,1.058l0,101.475l31.192,0l0,20.021l-54.775,0l0,-121.496l23.583,0Zm68.513,121.496l-23.617,0l0,-121.496l23.617,0l-0,121.496Zm-8.279,-148.317l23.775,0l-22.009,20.338l-16.729,-0l14.963,-20.338Zm50.987,26.821l18.754,47.584c3.613,9.379 9.575,25.062 12.984,35.508l0.358,-0c-0.725,-12.783 -2.358,-33.896 -2.358,-56.225l-0,-26.867l20.733,0l0,121.496l-21.621,-0l-18.558,-46.138c-3.963,-10.275 -9.558,-25.616 -12.258,-36.587l-0.388,-0c0.554,12.254 1.446,30.987 1.446,55.308l-0,27.417l-20.708,-0l-0,-121.496l21.616,0Zm217.592,122.942c-27.596,-0 -38.404,-29.204 -38.404,-62.542c-0,-33.171 13.146,-61.833 39.992,-61.833c29.387,-0 37.712,32.254 37.712,60.008c0,45.788 -16.279,64.367 -39.3,64.367m-56.987,-21.292c3.97,0 8.487,-0.892 11.35,-1.783l2.35,19.804c-3.43,1.65 -10.071,2.908 -18.371,2.908c-31,0 -45.813,-25.604 -45.813,-60.037c0,-45.759 25.413,-63.6 49.05,-63.6c8.288,-0 14.075,1.608 16.4,3.229l-3.966,19.825c-2.675,-1.254 -5.755,-2.333 -11,-2.333c-13.313,-0 -25.425,11.533 -25.425,41.62c-0,29.038 11.012,40.367 25.425,40.367m-65.592,19.846l-23.617,-0l0,-121.496l23.617,0l-0,121.496Zm172.746,35.146l175.521,-203.734l-1539.3,0l-175.487,203.734l1539.27,-0Z" style="fill:#fff;fill-opacity:0.1;fill-rule:nonzero;"/><path d="M1428.1,1124.8c0,27.558 5.25,41.608 14.792,41.608c9.896,0 13.662,-18.025 13.662,-42.712c0,-21.246 -3.225,-40.567 -13.862,-40.567c-9.346,0 -14.592,15.508 -14.592,41.671" style="fill:#fff;fill-opacity:0.1;fill-rule:nonzero;"/><path d="M1226.78,1166.41c9.896,0 13.688,-18.025 13.688,-42.712c-0,-21.25 -3.263,-40.567 -13.863,-40.567c-9.387,0 -14.637,15.504 -14.637,41.671c-0,27.558 5.25,41.608 14.812,41.608" style="fill:#fff;fill-opacity:0.1;fill-rule:nonzero;"/><path d="M1949.19,1083.12c-9.367,0 -14.58,15.508 -14.58,41.671c0,27.558 5.213,41.608 14.767,41.608c9.888,0 13.675,-18.025 13.675,-42.712c0,-21.246 -3.225,-40.567 -13.862,-40.567" style="fill:#fff;fill-opacity:0.1;fill-rule:nonzero;"/><path d="M645.108,719.604l193.454,248.484l109.975,-0l0,-452.963l-124.241,0l-0,239.446l-186.338,-239.446l-117.087,0l-0,452.963l124.237,-0l0,-248.484Z" style="fill:#fff;fill-opacity:0.1;fill-rule:nonzero;"/><path d="M1679.65,801.771l-102.875,-286.646l-140.433,0l183.775,456.171l116.475,-0l183.754,-456.171l-137.804,0l-102.892,286.646Z" style="fill:#fff;fill-opacity:0.1;fill-rule:nonzero;"/><path d="M2013.55,789.471l50.433,-128.746l50.471,128.746l-100.904,-0Zm304.704,178.617l-192.783,-456.171l-121.021,-0l-192.813,456.171l131.984,-0l31.945,-79.909l50.542,0l0.908,-0.991l123.671,-0l33.005,80.9l134.562,-0Z" style="fill:#fff;fill-opacity:0.1;fill-rule:nonzero;"/><path d="M987.4,739.496l0,1.312c0,86.188 45.467,160.938 116.813,201.625c36.312,20.696 79.312,32.596 126.483,32.596c139.771,0 244.571,-105.458 244.571,-235.533l-0,-1.292c-0,-122.191 -91.417,-221.546 -218.442,-233.096c-0.733,-0.045 -1.5,-0.087 -2.271,-0.145c10.646,33.25 33.567,61.183 55.763,88.229c29.05,35.354 60.808,74.033 63.012,125.312c0.838,19.021 -2.425,39.804 -11.391,62.779c-0.8,2.05 -1.638,4.092 -2.492,6.175c-20.763,48.409 -70.379,78.509 -129.492,78.509c-59.75,-0 -110.421,-31.146 -129.058,-79.284c-33.158,-85.591 10.837,-139.525 49.671,-187.12c23.187,-28.434 47.121,-57.825 56.754,-94.455c-127.242,11.613 -219.921,112.142 -219.921,234.388" style="fill:#fff;fill-opacity:0.1;fill-rule:nonzero;"/><path d="M1132.54,708.054c-0,-2.887 0.2,-5.75 0.429,-8.616c-2.071,8.166 -3.275,16.649 -3.275,25.433c-0,57.329 46.462,103.787 103.771,103.787c32.375,0 61.283,-14.82 80.312,-38.041c-19.229,16.729 -44.304,26.9 -71.754,26.9c-60.442,-0 -109.483,-48.971 -109.483,-109.463" style="fill:#fff;fill-opacity:0.1;fill-rule:nonzero;"/><path d="M1321.5,689.638c0,-21.092 -17.092,-38.163 -38.137,-38.163c-21.075,0 -38.142,17.071 -38.142,38.163c-0,21.058 17.067,38.154 38.142,38.154c21.045,-0 38.137,-17.096 38.137,-38.154" style="fill:#fff;fill-opacity:0.1;fill-rule:nonzero;"/><path d="M1558.37,1413.85c-284.204,45.537 -552.954,36.667 -772.246,-15.934c-298.825,-71.683 -505.65,-224.516 -532.796,-432.191c-51.716,-396.046 572.384,-776.963 1264.22,-854.346c390.225,-43.638 728.283,19.629 956.7,151.829c0,-0.487 -0.067,-0.95 -0.067,-1.446c0,-12.529 1.288,-24.729 3.571,-36.587c1.084,-5.796 2.538,-11.438 4.138,-17.038c-249.667,-162.591 -638.934,-243.258 -1092.6,-192.546c-757.888,84.78 -1441.77,500.775 -1385.27,932.95c54.275,415.017 767.937,629.534 1554.35,465.309" style="fill:#fff;fill-opacity:0.1;fill-rule:nonzero;"/><path d="M2667.26,561.892c-160.554,-327.113 -788.354,-484.592 -1472.03,-353.671c-20.396,3.912 -40.675,8.054 -60.708,12.35c308.267,-51.154 600.992,-38.021 831.929,26c254.163,70.508 433.458,202.671 476.163,378.775c83.841,346.158 -392.155,731.004 -1063.18,859.45c-646.391,123.666 -1237.78,-35.567 -1355.32,-356.871c-0.859,-2.5 -1.825,-4.971 -2.684,-7.45c1.621,10.554 3.613,21.096 6.15,31.571c92.025,380.2 764.009,574.012 1501,432.996c548.046,-104.9 977.538,-365.55 1123.91,-648.692c0.154,-0.325 0.321,-0.583 0.529,-0.95c46.65,-84.833 169.787,-456.754 360.233,-512.563c-73.75,13.092 -244.717,51.488 -345.996,139.055" style="fill:#fff;fill-opacity:0.1;fill-rule:nonzero;"/><path d="M2772.88,360.5c2.238,-3.417 4.408,-6.8 6.346,-10.371c40.004,-74.562 11.812,-167.617 -63.029,-207.754c-34.013,-18.25 -71.746,-22.296 -106.667,-14.404c38.975,-16.013 84.567,-15.142 124.6,6.371c70.933,38.087 97.704,126.183 59.708,196.941c-5.85,10.813 -12.945,20.534 -20.958,29.217m-105.621,-258.229c-88.1,-0 -159.496,71.446 -159.496,159.487c0,88.05 71.396,159.484 159.496,159.484c88.046,-0 159.434,-71.434 159.434,-159.484c-0,-88.041 -71.388,-159.487 -159.434,-159.487" style="fill:#fff;fill-opacity:0.1;fill-rule:nonzero;"/></g></g></svg>