<?xml version="1.0" encoding="UTF-8" standalone="no"?><!DOCTYPE svg PUBLIC "-//W3C//DTD SVG 1.1//EN" "http://www.w3.org/Graphics/SVG/1.1/DTD/svg11.dtd"><svg width="100%" height="100%" viewBox="0 0 718 393" version="1.1" xmlns="http://www.w3.org/2000/svg" style="fill-rule:evenodd;clip-rule:evenodd;stroke-linejoin:round;stroke-miterlimit:2;"><rect id="Artboard1" x="0" y="-0" width="717.933" height="392.62" style="fill:none;"/><clipPath id="_clip1"><rect x="0" y="-0" width="717.933" height="392.62"/></clipPath><g clip-path="url(#_clip1)"><path d="M178.874,267.351c-0.308,-1.774 -0.688,-4.665 -0.95,-6.617l-0.13,-0c-0.307,1.952 -0.734,4.977 -1.037,6.66l-1.084,6.06l4.15,-0l-0.949,-6.103Z" style="fill:#fff;fill-rule:nonzero;"/><path d="M201.418,276.005c0,-2.894 -1.994,-4.414 -4.242,-4.462l-1.212,0l0,8.744c0.344,0.087 0.73,0.087 1.257,0.087c2.288,0 4.197,-1.389 4.197,-4.369" style="fill:#fff;fill-rule:nonzero;"/><path d="M242.556,263.974c-0,-2.457 -0.999,-4.24 -3.549,-4.322c-0.476,-0 -1.039,0.04 -1.346,0.17l-0,8.696l0.999,-0c2.466,-0 3.896,-1.986 3.896,-4.544" style="fill:#fff;fill-rule:nonzero;"/><path d="M317.782,263.974c-0,-2.457 -0.994,-4.24 -3.544,-4.322c-0.477,-0 -1.039,0.04 -1.344,0.17l-0,8.696l0.994,-0c2.469,-0 3.894,-1.986 3.894,-4.544" style="fill:#fff;fill-rule:nonzero;"/><path d="M219.195,279.938c2.377,-0 3.287,-4.326 3.287,-10.251c-0,-5.1 -0.777,-9.736 -3.332,-9.736c-2.248,-0 -3.508,3.721 -3.508,10.001c-0,6.614 1.26,9.986 3.553,9.986" style="fill:#fff;fill-rule:nonzero;"/><path d="M200.763,263.241c0,-2.119 -0.995,-3.759 -3.328,-3.759c-0.608,0 -1.127,0.042 -1.471,0.169l0,7.699l1.212,0c2.036,0 3.587,-1.726 3.587,-4.109" style="fill:#fff;fill-rule:nonzero;"/><path d="M260.722,267.351c-0.299,-1.774 -0.691,-4.665 -0.958,-6.617l-0.122,-0c-0.301,1.952 -0.74,4.977 -1.039,6.66l-1.082,6.06l4.152,-0l-0.951,-6.103Z" style="fill:#fff;fill-rule:nonzero;"/><path d="M153.701,255.367l5.664,0l-0,24.354l7.485,0l-0,4.805l-13.149,0l-0,-29.159Zm20.934,0l6.795,0l5.662,29.159l-5.489,0l-1.258,-6.662l-5.232,0l-1.296,6.662l-5.496,0l6.314,-29.159Zm22.108,-0.127c2.724,0 5.364,0.347 7.396,2.076c1.554,1.299 2.208,3.242 2.208,5.281c-0,2.59 -1.341,5.1 -4.24,6.354l-0,0.175c3.377,0.949 5.192,3.763 5.192,6.964c-0,2.42 -0.781,4.284 -2.166,5.71c-1.728,1.904 -4.671,2.941 -9.562,2.941c-2.166,0 -3.977,-0.127 -5.276,-0.302l-0,-28.638c1.738,-0.389 3.982,-0.561 6.448,-0.561m22.63,-0.217c7.045,0 9.034,7.741 9.034,14.402c-0,10.989 -3.893,15.448 -9.432,15.448c-6.622,0 -9.21,-7.009 -9.21,-15.01c-0,-7.961 3.159,-14.84 9.608,-14.84m18.812,0.217c3.116,0 5.879,0.429 7.779,2.166c1.782,1.598 2.296,3.541 2.296,6.052c-0,3.115 -1.508,5.924 -4.496,7.309l-0,0.091c1.994,0.772 2.988,2.634 3.548,5.747c0.567,3.242 1.344,6.84 1.855,7.921l-5.922,0c-0.353,-0.822 -0.995,-3.763 -1.423,-6.972c-0.521,-3.628 -1.429,-4.665 -3.333,-4.665l-0.827,0l-0,11.637l-5.658,0l-0,-28.725c1.767,-0.347 4.02,-0.561 6.181,-0.561m25.089,0.127l5.665,29.159l-5.49,0l-1.256,-6.662l-5.232,0l-1.301,6.662l-5.491,0l6.315,-29.159l6.79,0Zm4.722,0l16.001,0l-0,5.236l-5.19,0l-0,23.923l-5.665,0l-0,-23.923l-5.146,0l-0,-5.236Zm26.601,-0.344c7.054,0 9.041,7.741 9.041,14.402c-0,10.989 -3.896,15.448 -9.432,15.448c-6.618,0 -9.21,-7.009 -9.21,-15.01c-0,-7.961 3.161,-14.84 9.601,-14.84m18.821,0.217c3.116,0 5.88,0.429 7.779,2.166c1.775,1.598 2.295,3.541 2.295,6.052c-0,3.115 -1.516,5.924 -4.498,7.309l-0,0.091c1.988,0.772 2.982,2.634 3.549,5.747c0.56,3.242 1.341,6.84 1.857,7.921l-5.926,0c-0.348,-0.822 -0.994,-3.763 -1.429,-6.972c-0.511,-3.628 -1.421,-4.665 -3.325,-4.665l-0.826,0l-0,11.637l-5.66,0l-0,-28.725c1.768,-0.347 4.021,-0.561 6.184,-0.561m19.81,29.286l-5.671,0l-0,-29.159l5.671,0l-0,29.159Zm13.238,-29.503c7.046,0 9.046,7.741 9.046,14.402c-0,10.989 -3.897,15.448 -9.435,15.448c-6.62,0 -9.218,-7.009 -9.218,-15.01c-0,-7.961 3.161,-14.84 9.607,-14.84m29.85,0.09c1.983,0 3.371,0.386 3.936,0.775l-0.958,4.758c-0.644,-0.301 -1.373,-0.56 -2.632,-0.56c-3.203,0 -6.105,2.768 -6.105,9.989c-0,6.969 2.643,9.688 6.105,9.688c0.952,0 2.031,-0.214 2.722,-0.428l0.568,4.753c-0.825,0.396 -2.425,0.698 -4.417,0.698c-7.439,0 -10.989,-6.145 -10.989,-14.409c-0,-10.982 6.098,-15.264 11.77,-15.264m12.409,0.254l-0,24.354l7.486,0l-0,4.805l-13.146,0l-0,-29.159l5.66,0Zm16.443,29.159l-5.668,0l-0,-29.159l5.668,0l-0,29.159Zm-1.987,-35.596l5.706,0l-5.282,4.881l-4.015,0l3.591,-4.881Zm12.237,6.437l4.501,11.42c0.867,2.251 2.298,6.015 3.116,8.522l0.086,0c-0.174,-3.068 -0.566,-8.135 -0.566,-13.494l-0,-6.448l4.976,0l-0,29.159l-5.189,0l-4.454,-11.073c-0.951,-2.466 -2.294,-6.148 -2.942,-8.781l-0.093,0c0.133,2.941 0.347,7.437 0.347,13.274l-0,6.58l-4.97,0l-0,-29.159l5.188,0Zm52.222,29.506c-6.623,0 -9.217,-7.009 -9.217,-15.01c-0,-7.961 3.155,-14.84 9.598,-14.84c7.053,0 9.051,7.741 9.051,14.402c-0,10.989 -3.907,15.448 -9.432,15.448m-13.677,-5.11c0.953,0 2.037,-0.214 2.724,-0.428l0.564,4.753c-0.823,0.396 -2.417,0.698 -4.409,0.698c-7.44,0 -10.995,-6.145 -10.995,-14.409c-0,-10.982 6.099,-15.264 11.772,-15.264c1.989,0 3.378,0.386 3.936,0.775l-0.952,4.758c-0.642,-0.301 -1.381,-0.56 -2.64,-0.56c-3.195,0 -6.102,2.768 -6.102,9.989c-0,6.969 2.643,9.688 6.102,9.688m-15.742,4.763l-5.668,0l-0,-29.159l5.668,0l-0,29.159Zm41.459,8.435l42.125,-48.896l-369.432,0l-42.117,48.896l369.424,0Z" style="fill:#fff;fill-rule:nonzero;"/><path d="M342.744,269.951c-0,6.614 1.26,9.986 3.55,9.986c2.375,0 3.279,-4.326 3.279,-10.251c0,-5.099 -0.774,-9.736 -3.327,-9.736c-2.243,0 -3.502,3.722 -3.502,10.001" style="fill:#fff;fill-rule:nonzero;"/><path d="M294.427,279.938c2.375,-0 3.285,-4.326 3.285,-10.251c0,-5.1 -0.783,-9.736 -3.327,-9.736c-2.253,-0 -3.513,3.721 -3.513,10.001c0,6.614 1.26,9.986 3.555,9.986" style="fill:#fff;fill-rule:nonzero;"/><path d="M467.806,259.95c-2.248,0 -3.499,3.722 -3.499,10.001c0,6.614 1.251,9.986 3.544,9.986c2.373,0 3.282,-4.326 3.282,-10.251c0,-5.099 -0.774,-9.736 -3.327,-9.736" style="fill:#fff;fill-rule:nonzero;"/><path d="M154.826,172.705l46.429,59.636l26.394,-0l0,-108.711l-29.818,-0l0,57.467l-44.721,-57.467l-28.101,-0l0,108.711l29.817,-0l0,-59.636Z" style="fill:#fff;fill-rule:nonzero;"/><path d="M403.116,192.425l-24.69,-68.795l-33.704,0l44.106,109.481l27.954,0l44.101,-109.481l-33.073,0l-24.694,68.795Z" style="fill:#fff;fill-rule:nonzero;"/><path d="M483.251,189.473l12.104,-30.899l12.113,30.899l-24.217,-0Zm73.129,42.868l-46.268,-109.481l-29.045,-0l-46.275,109.481l31.676,-0l7.667,-19.178l12.13,-0l0.218,-0.238l29.681,-0l7.921,19.416l32.295,-0Z" style="fill:#fff;fill-rule:nonzero;"/><path d="M236.976,177.479l-0,0.315c-0,20.685 10.912,38.625 28.035,48.39c8.715,4.967 19.035,7.823 30.356,7.823c33.545,-0 58.697,-25.31 58.697,-56.528l-0,-0.31c-0,-29.326 -21.94,-53.171 -52.426,-55.943c-0.176,-0.011 -0.36,-0.021 -0.545,-0.035c2.555,7.98 8.056,14.684 13.383,21.175c6.972,8.485 14.594,17.768 15.123,30.075c0.201,4.565 -0.582,9.553 -2.734,15.067c-0.192,0.492 -0.393,0.982 -0.598,1.482c-4.983,11.618 -16.891,18.842 -31.078,18.842c-14.34,-0 -26.501,-7.475 -30.974,-19.028c-7.958,-20.542 2.601,-33.486 11.921,-44.909c5.565,-6.824 11.309,-13.878 13.621,-22.669c-30.538,2.787 -52.781,26.914 -52.781,56.253" style="fill:#fff;fill-rule:nonzero;"/><path d="M271.809,169.933c-0,-0.693 0.048,-1.38 0.103,-2.068c-0.497,1.96 -0.786,3.996 -0.786,6.104c-0,13.759 11.151,24.909 24.905,24.909c7.77,-0 14.708,-3.557 19.275,-9.13c-4.615,4.015 -10.633,6.456 -17.221,6.456c-14.506,-0 -26.276,-11.753 -26.276,-26.271" style="fill:#fff;fill-rule:nonzero;"/><path d="M317.16,165.513c-0,-5.062 -4.102,-9.159 -9.153,-9.159c-5.058,0 -9.154,4.097 -9.154,9.159c-0,5.054 4.096,9.157 9.154,9.157c5.051,0 9.153,-4.103 9.153,-9.157" style="fill:#fff;fill-rule:nonzero;"/><path d="M374.009,339.323c-68.209,10.929 -132.709,8.8 -185.339,-3.824c-71.718,-17.204 -121.356,-53.884 -127.871,-103.726c-12.412,-95.051 137.372,-186.471 303.413,-205.043c93.654,-10.473 174.788,4.711 229.608,36.439c0,-0.117 -0.016,-0.228 -0.016,-0.347c0,-3.007 0.309,-5.935 0.857,-8.781c0.26,-1.391 0.609,-2.745 0.993,-4.089c-59.92,-39.022 -153.344,-58.382 -262.225,-46.211c-181.893,20.347 -346.024,120.186 -332.465,223.908c13.026,99.604 184.305,151.088 373.045,111.674" style="fill:#fff;fill-rule:nonzero;"/><path d="M640.142,134.854c-38.533,-78.507 -189.205,-116.302 -353.287,-84.881c-4.895,0.939 -9.762,1.933 -14.57,2.964c73.984,-12.277 144.238,-9.125 199.663,6.24c60.999,16.922 104.03,48.641 114.279,90.906c20.122,83.078 -94.117,175.441 -255.163,206.268c-155.134,29.68 -297.068,-8.536 -325.276,-85.649c-0.206,-0.6 -0.438,-1.193 -0.644,-1.788c0.389,2.533 0.867,5.063 1.476,7.577c22.086,91.248 183.362,137.763 360.24,103.919c131.531,-25.176 234.609,-87.732 269.738,-155.686c0.037,-0.078 0.077,-0.14 0.127,-0.228c11.196,-20.36 40.749,-109.621 86.456,-123.015c-17.7,3.142 -58.732,12.357 -83.039,33.373" style="fill:#fff;fill-rule:nonzero;"/><path d="M665.49,86.52c0.537,-0.82 1.058,-1.632 1.523,-2.489c9.601,-17.895 2.835,-40.228 -15.127,-49.861c-8.163,-4.38 -17.219,-5.351 -25.6,-3.457c9.354,-3.843 20.296,-3.634 29.904,1.529c17.024,9.141 23.449,30.284 14.33,47.266c-1.404,2.595 -3.107,4.928 -5.03,7.012m-25.349,-61.975c-21.144,-0 -38.279,17.147 -38.279,38.277c0,21.132 17.135,38.276 38.279,38.276c21.131,-0 38.264,-17.144 38.264,-38.276c0,-21.13 -17.133,-38.277 -38.264,-38.277" style="fill:#fff;fill-rule:nonzero;"/></g></svg>
